<?xml version='1.0' encoding='utf-8'?>
<svg xmlns="http://www.w3.org/2000/svg" version="1.1" width="100px" height="100px" viewBox="150 360 360 679"> <g id="layer1"> <g style="fill:#9f7060; fill-opacity:1.0; stroke-linejoin: miter"> <path d="M380.0805,366.5775C377.9729,366.5775,375.86554,366.6194,373.63287,366.68195C371.83823,366.7237,369.98117,366.7655,367.97806,366.8907C367.56073,366.8907,367.12253,366.93225,366.68445,366.97406C317.18982,369.33203,275.93732,387.92383,248.70694,419.9322C232.86948,438.60767,222.06082,461.79004,217.30319,487.6225C213.00476,511.18054,213.42218,536.2196,218.65958,562.6154C221.7687,578.41095,223.16666,582.1879,234.038,604.28503C241.69592,619.85126,243.90765,624.94293,246.70367,633.4353C250.64728,645.6002,251.2315,653.6337,248.9779,665.7568C247.22522,674.834,243.7196,689.73206,241.61218,697.07684C241.17404,698.3497,240.00552,702.5437,238.92038,706.2789C237.00082,712.9978,236.2912,715.4392,232.34753,728.00055L232.26416,728.0041C228.42468,734.67773,223.20825,742.4398,216.99005,750.32733C211.41885,757.6933,205.74313,770.6094,204.95029,779.3106C203.48965,791.2042,199.87978,797.69366,189.23799,806.52C181.66353,812.7796,174.84035,819.03986,173.73433,820.2918C172.60768,821.5225,168.07965,825.6753,163.88556,829.0344C136.8221,849.275,83.44632,914.1891,83.98892,925.95795L83.21683,925.9611Q195.78969,1031.8119,349.7195,1037.174Q352.53638,1037.216,355.3325,1037.216Q427.4459,1037.2158,491.17126,1015.0973L493.54987,1015.1008C493.3204,1014.8053,493.0908,1014.53406,492.88214,1014.2837C477.39948,997.1737,473.64362,983.61035,471.41095,937.49634C468.09348,876.46277,457.2638,839.0915,432.8714,807.1246C424.87964,796.83777,424.85886,796.4616,434.72852,780.1657C435.1042,779.4982,435.47977,778.83014,435.8553,778.1209L435.91788,778.1245Q434.20685,777.43225,432.45413,776.6394L432.4123,776.6424C434.10242,772.40356,435.70923,768.6684,437.27417,765.5178C439.75726,760.55145,443.7637,754.6882,445.8919,752.8309L447.49866,751.4536L478.2137,755.8567L509.0329,760.2592L512.3714,759.8421C516.60736,759.3827,519.09045,758.79877,522.742,757.5465C530.67114,754.7715,538.97595,747.8436,541.60516,741.7093C543.7126,736.65985,543.5874,731.1719,541.02075,716.87854C539.2055,707.00903,539.2055,706.80005,539.748,704.0042C540.6242,700.12286,542.8779,696.9724,548.51166,692.1104C553.2484,687.99994,553.7701,687.4156,553.95795,686.0594C554.2083,684.4318,553.4988,682.78357,551.0367,679.0901C548.47,675.27167,547.5937,673.37244,548.0945,672.4962C548.21967,672.246,549.4717,671.3696,550.8696,670.61847C557.2757,667.13354,559.34125,665.10986,559.9048,661.7084C560.2803,659.43384,559.8629,657.84845,557.52594,653.6123C555.62726,650.14874,555.04285,648.18713,555.02203,646.07947C555.02203,645.16156,554.6883,642.6368,554.35443,640.4669C553.5824,635.8346,553.74945,633.8316,555.02216,632.35004C556.4827,630.5138,558.8825,629.69977,563.61914,629.4912C564.0364,629.4495,564.4537,629.40753,564.91284,629.40753C565.16315,629.3869,565.41345,629.3869,565.68475,629.3869C566.2482,629.3869,566.83246,629.40753,567.4376,629.40753C567.5627,629.42847,567.68805,629.42847,567.8132,629.42847C568.0428,629.42847,568.29315,629.40753,568.5225,629.40753C570.21265,629.32416,571.7361,628.9069,575.26245,627.73865C583.62994,624.8798,587.13525,622.6053,588.84644,618.78705C590.2444,615.71967,589.8897,611.7342,587.57336,605.18225C584.6315,596.91907,579.9365,588.09247,565.76843,564.0341C557.0045,549.0732,552.3724,540.8518,549.28406,534.59186L547.427,530.77313L548.67883,528.5822C552.97736,521.1959,554.33374,513.8929,553.7077,501.87372C552.72705,482.73932,547.3645,463.87634,538.2668,447.12103C531.2767,434.30896,521.3862,421.66437,510.38974,411.50238C490.48355,393.07788,463.1488,379.2645,433.4145,372.54535C430.59747,371.91937,427.6136,371.27234,426.7164,371.06378C423.73257,370.35443,401.6352,367.49554,397.149,367.20374C390.4509,366.78607,385.2971,366.57745,380.0805,366.5775 Z M377.26343,403.03064Q424.42108,403.03064,459.99777,435.62378Q495.11572,469.886,497.07697,518.92126Q497.70282,568.0193,464.31708,604.01373Q430.63895,638.8181,381.16528,640.9466L379.496,640.9502Q331.25342,640.94666,295.9271,608.06177Q261.31015,574.3422,259.18158,525.1189Q258.55566,476.0417,291.94165,440.00555Q325.61978,405.22174,375.0518,403.05133L375.0727,403.0548Q376.17844,403.03058,377.26343,403.03064 Z"/> </g> <g style="fill:#411c10; fill-opacity:1.0; stroke-linejoin: miter"> <path d="M431.47452,567.7113C440.3492,567.845,445.68567,567.93646,445.78217,567.95734C445.96893,568.00616,446.85712,568.16,447.79138,568.31476C451.8559,569.0783,453.24573,573.2222,450.48376,576.22577C449.1023,577.7509,449.05536,577.7504,444.18246,577.81775L439.21445,577.93066L438.01712,579.69275C434.66412,584.6086,431.68005,586.7653,427.50076,587.4521C425.76346,587.707,406.79074,587.65735,377.4235,587.26447C366.18692,587.1265,357.5265,587.0253,350.81183,586.925C327.24374,586.5713,327.65207,586.2228,324.7642,584.31934C323.00153,583.1216,320.5101,580.55505,318.58334,577.8556L317.3448,576.104L312.4764,575.84357C308.12256,575.63824,307.46902,575.4871,306.45343,574.4881C304.00604,572.1097,304.62558,568.2773,307.69174,566.87054C309.20117,566.191,314.63568,566.179,377.3994,566.9784C399.29468,567.2524,418.92334,567.5237,431.47452,567.7113 Z"/> </g> <g style="fill:#411c10; fill-opacity:1.0; stroke-linejoin: miter"> <path d="M313.00415,468.65378C325.9941,468.50366,346.7985,468.5819,381.2614,468.69745C461.64105,468.9649,462.4489,468.9679,462.79102,470.12354C463.1336,471.27856,461.76224,484.43033,460.76608,489.15836C460.47232,490.60068,460.0035,492.73343,459.82614,494.00192C459.59116,495.21304,459.2404,496.6544,459.00778,497.17368C458.71762,497.69138,457.66898,500.63132,456.67746,503.74417C453.58862,512.90796,449.00195,521.4329,442.45166,530.2971C439.0318,534.8441,429.5366,544.3907,426.70334,546.11224C425.77814,546.68646,424.67914,547.5479,424.21588,548.066C423.81177,548.6391,423.18066,549.0391,422.89014,549.04205C422.8886,549.04266,422.88705,549.04266,422.88528,549.04266C422.88425,549.04266,422.8831,549.04266,422.88223,549.04266C422.58926,549.0466,421.49524,549.67474,420.51526,550.362C419.47403,551.1082,417.21927,552.42804,415.48526,553.3455C411.03476,555.5233,410.86102,555.7529,410.85138,558.5816C410.84384,560.831,410.66907,561.2349,409.2827,561.7498C408.8916,561.89655,405.73715,561.9926,401.1215,562.0467C385.9668,562.2215,355.06625,561.9259,354.58118,561.39417C354.35077,561.2197,354.06726,559.8915,353.8989,558.506C353.5607,556.02386,352.41342,554.0008,351.20154,553.9965C350.16312,553.935,341.6418,548.4247,336.86505,544.59985C332.43347,541.12317,325.13016,533.65546,323.35056,530.8226C322.83395,530.0131,321.62717,528.4516,320.59283,527.294C319.6158,526.13666,318.1233,523.7658,317.26373,521.9742C316.40433,520.1249,315.4281,518.6212,315.0245,518.6195C314.68127,518.569,312.7099,518.55566,310.3883,518.5818C309.98065,518.5874,309.5618,518.5935,309.13913,518.6C309.12677,518.60046,309.11465,518.60046,309.1024,518.60046C301.88715,518.68384,290.44864,516.39996,289.2452,514.6098C289.0728,514.3786,288.55457,513.9725,288.09384,513.79755C282.85092,511.29895,278.48233,506.26456,276.36807,500.08334C274.7677,495.5194,274.90997,487.44147,276.65646,482.77362C278.46158,477.99066,282.10992,474.07883,286.8491,471.84378C291.45575,469.70102,292.41302,468.89053,313.00415,468.65378 Z M301.36234,483.48267C300.739,483.49066,299.96472,483.5655,298.9845,483.65625C296.73325,483.8791,294.1931,484.44824,293.44107,484.96484C290.5494,486.85938,289.96848,488.06927,289.89673,492.22406C289.88217,496.60944,290.6261,498.3428,293.38852,500.6019C296.03595,502.7449,300.64706,504.20407,304.74377,504.21756L308.43695,504.22995L308.15372,502.61325C308.04126,501.74747,307.35745,499.2061,306.73004,497.01193C306.10248,494.75934,305.2484,491.40912,304.90875,489.50323C303.9156,484.45178,303.78552,483.45496,301.36234,483.48267 Z"/> </g> <g style="fill:#f1ccaa; fill-opacity:1.0; stroke-linejoin: miter"> <path d="M374.2831,493.0168C369.3495,494.152,364.71854,496.94003,360.8463,501.12766C356.59076,505.71622,353.87564,511.43542,353.50662,516.5762C353.40985,517.8784,353.6914,521.24274,353.95923,522.00226C354.07355,522.3243,354.2393,522.7845,354.31665,523.01984C354.39386,523.25555,354.6984,523.8818,354.9768,524.424L355.5061,525.389L355.90247,525.2602C358.15314,524.512,363.29688,520.4566,365.9172,517.3578C367.7879,515.1472,368.32742,513.98694,369.68234,509.15396C371.02866,504.37643,371.8601,502.52518,373.72052,500.10873C375.366,497.98544,376.62796,497.0928,380.53543,495.28006C381.93033,494.64127,383.12268,494.0897,383.197,494.0527C383.77164,493.78317,382.04892,493.1202,379.8396,492.76462C378.6309,492.5763,375.6185,492.7076,374.2831,493.0168 Z"/> </g> <g style="fill:#f1ccaa; fill-opacity:1.0; stroke-linejoin: miter"> <path d="M385.30582,497.55264C384.49033,498.0201,383.13055,498.69986,382.27707,499.07126C379.4076,500.28604,378.19638,501.11044,376.9792,502.66605C375.6181,504.4031,374.83844,506.1876,373.77957,509.9905C372.62082,514.18066,372.15952,515.39185,370.94507,517.4269C369.9319,519.13605,368.9782,520.3067,367.0579,522.1811C365.52142,523.67706,364.1429,524.84796,362.4204,526.11346C361.43295,526.84015,359.32468,528.2347,358.88873,528.4422C358.5164,528.62445,360.87662,529.81146,362.334,530.17267C364.68616,530.77216,367.78525,530.6347,370.61047,529.8254C375.02466,528.5528,379.36908,525.7041,383.00128,521.714C387.489,516.77496,390.1352,510.5588,390.07425,505.11215C390.0432,502.37827,389.47403,500.20572,388.26123,498.2302C387.70206,497.31046,387.145,496.6523,386.95038,496.68454C386.86353,496.68857,386.12115,497.08682,385.30582,497.55264 Z"/> </g> <g style="fill:#f1ccaa; fill-opacity:1.0; stroke-linejoin: miter"> <path d="M391.37292,505.99442C391.3281,506.39944,391.27084,506.98038,391.25378,507.2864C391.22568,507.58267,391.13812,508.21902,391.04315,508.7029C390.958,509.17636,390.8847,509.6591,390.88974,509.75748C390.8957,509.86624,391.22815,510.4047,391.63748,510.9499C392.53806,512.14655,393.06052,513.1988,394.112,515.858C395.34082,518.989,395.9557,519.92725,397.88397,521.61584C399.16132,522.72754,401.2963,524.18823,402.6276,524.86035C403.45554,525.27673,404.55774,525.7317,404.732,525.723C404.9278,525.71277,405.3201,524.8644,405.5945,523.84814C405.77878,523.1848,405.78513,522.8794,405.69107,521.042C405.56827,518.85815,405.51044,518.57764,404.79697,516.7828C402.88028,511.92194,398.00247,507.33328,392.96786,505.64053C392.51318,505.4893,391.98145,505.33023,391.79517,505.3071L391.44336,505.24887L391.37292,505.99442 Z"/> </g> <g style="fill:#f1ccaa; fill-opacity:1.0; stroke-linejoin: miter"> <path d="M389.3143,514.3271C388.09494,517.1147,386.48132,519.6504,384.4946,521.93115L383.6814,522.8668L384.00983,523.3185C384.57236,524.0853,387.2639,526.42114,388.45795,527.177C393.1778,530.1726,397.99753,530.8524,401.56577,529.0242C402.1607,528.7206,402.8444,528.23914,402.83838,528.1195C402.83606,528.0763,402.70044,527.9846,402.53354,527.91736C402.35602,527.8507,401.79678,527.5736,401.27023,527.29504C398.05524,525.5969,394.85977,523.0023,393.5027,520.97925C392.80765,519.9581,392.15372,518.6842,391.68472,517.39996C390.926,515.3571,389.98108,513.29095,389.81793,513.2996C389.78546,513.30145,389.55865,513.7701,389.3143,514.3271 Z"/> </g> </g> </svg>