<svg id="workspace"
  xmlns="http://www.w3.org/2000/svg"
  xmlns:xlink="http://www.w3.org/1999/xlink" style="text-rendering: geometricprecision; cursor: auto;"
  viewBox="320 320 1000 500" preserveAspectRatio="none">
  <defs>
    <linearGradient x1="0" y1="0.5" x2="1" y2="0.5" id="linearGradientSk5nzdz5w4y">
      <stop offset="0%" stop-color="#894e00"></stop>
      <stop offset="100%" stop-color="#894e00"></stop>
    </linearGradient>
    <linearGradient x1="0" y1="0.5" x2="1" y2="0.5" id="linearGradientSk5nzdz5w51">
      <stop offset="0%" stop-color="#ec4c4c"></stop>
      <stop offset="100%" stop-color="#ec4c4c"></stop>
    </linearGradient>
    <linearGradient x1="0" y1="0.5" x2="1" y2="0.5" id="linearGradientSk5nzdz5w54">
      <stop offset="0%" stop-color="#cf9140"></stop>
      <stop offset="100%" stop-color="#cf9140"></stop>
    </linearGradient>
    <linearGradient x1="0" y1="0.5" x2="1" y2="0.5" id="linearGradientSk5nzdz5w5a">
      <stop offset="0%" stop-color="#ec4c4c"></stop>
      <stop offset="100%" stop-color="#ec4c4c"></stop>
    </linearGradient>
    <linearGradient x1="0" y1="0.5" x2="1" y2="0.5" id="linearGradientSk5nzdz5w5d">
      <stop offset="0%" stop-color="#cf9140"></stop>
      <stop offset="100%" stop-color="#cf9140"></stop>
    </linearGradient>
    <linearGradient x1="0" y1="0.5" x2="1" y2="0.5" id="linearGradientSk5nzdz5w6a">
      <stop offset="0%" stop-color="#cf9140"></stop>
      <stop offset="61%" stop-color="#cf9140"></stop>
      <stop offset="62%" stop-color="#6F4436"></stop>
      <stop offset="91%" stop-color="#6F4436"></stop>
      <stop offset="92%" stop-color="#cf9140"></stop>
      <stop offset="100%" stop-color="#cf9140"></stop>
    </linearGradient>
    <linearGradient x1="0" y1="0.5" x2="1" y2="0.5" id="linearGradientSk5nzdz5w6d">
      <stop offset="0%" stop-color="#ec4c4c"></stop>
      <stop offset="100%" stop-color="#ec4c4c"></stop>
    </linearGradient>
    <linearGradient x1="0" y1="0.5" x2="1" y2="0.5" id="linearGradientSk5nzdz5w6j">
      <stop offset="0%" stop-color="#fdfff5"></stop>
      <stop offset="100%" stop-color="#fdfff5"></stop>
    </linearGradient>
    <linearGradient x1="0" y1="0.5" x2="1" y2="0.5" id="linearGradientSk5nzdz5w6p">
      <stop offset="0%" stop-color="#fdfff5"></stop>
      <stop offset="100%" stop-color="#fdfff5"></stop>
    </linearGradient>
    <linearGradient x1="0" y1="0.5" x2="1" y2="0.5" id="linearGradientSk5nzdz5w7e">
      <stop offset="0%" stop-color="#894e00"></stop>
      <stop offset="100%" stop-color="#894e00"></stop>
    </linearGradient>
    <linearGradient x1="0" y1="0.5" x2="1" y2="0.5" id="linearGradientSk5nzdz5w7r">
      <stop offset="0%" stop-color="#f35743"></stop>
      <stop offset="100%" stop-color="#f35743"></stop>
    </linearGradient>
  </defs>
  <g class="svg-clip svg-visible" transform="matrix(2.7273,0,0,2.7273,1054.0001,428.9092)" style="cursor: move; opacity: 1;">
    <rect x="0" y="0" width="55" height="47" fill="none" class="svg-hitbox" style=""></rect>
    <svg width="55.48263403854134" height="47.110000000000014" viewBox="41.761,44.717,55.48263403854134,47.110000000000014">
      <g>
        <path d="M91.609,85.407c-4.207-5.085-3.187-12-2.187-15.735c0.942-2.331,1.472-4.812,1.472-7.406c0-4.633-1.631-8.939-4.414-12.549  C83.77,66.564,67.068,79.609,46.761,79.93c4.665,3.282,10.648,5.26,17.174,5.26c4.771,0,9.237-1.063,13.119-2.91  c5.959,3.998,13.379,4.547,13.379,4.547C93.641,86.825,91.609,85.407,91.609,85.407z" fill="url('#linearGradientSk5nzdz5w6d')" stroke="none" style=""></path>
      </g>
    </svg>
  </g>
  <g class="svg-clip svg-visible" transform="matrix(2.7273,0,0,2.7273,948.091,330.7274)" style="cursor: move; opacity: 1;">
    <rect x="0" y="0" width="85" height="75" fill="none" class="svg-hitbox" style=""></rect>
    <svg width="85.64" height="75.466" viewBox="2.786000000000006,8.361,85.64,75.466">
      <desc>Created with Snap</desc>
      <defs></defs>
      <g></g>
      <g></g>
      <g>
        <path d="M83.426,44.923c0-17.401-16.789-31.562-37.421-31.562c-20.635,0-37.422,14.161-37.422,31.562  c0,3.4,0.673,6.804,2.003,10.106c1.544,5.688,3.072,15.9-2.8,23.798c1.994-0.214,10.954-1.419,18.195-6.271l0.823-0.55l0.894,0.423  c5.578,2.651,11.908,4.057,18.307,4.057C66.637,76.486,83.426,62.324,83.426,44.923z" fill="url('#linearGradientSk5nzdz5w7r')" stroke="none" style=""></path>
      </g>
    </svg>
  </g>
  <g class="svg-clip svg-visible" transform="matrix(2.7273,0,0,2.7273,1002.0001,552.0001)" style="cursor: move; opacity: 1;">
    <rect x="0" y="0" width="88" height="77" fill="none" class="svg-hitbox" style=""></rect>
    <svg width="88.84933394197064" height="77.00600000000003" viewBox="5.520000000000001,23.355999999999995,88.84933394197064,77.00600000000003">
      <desc>Created with Snap</desc>
      <defs></defs>
      <g></g>
      <g></g>
      <g>
        <path fill="url('#linearGradientSk5nzdz5w4y')" d="M88.885,60.824c1.599-5.598-1.045-8.978-3.795-10.171c-1.17-0.507-2.454-0.703-3.75-0.59   c0.241-3.13,0.141-5.168,0.137-5.207c0-9.249-14.49-16.497-32.989-16.5C29.99,28.359,15.5,35.607,15.502,44.777   c-0.031,0.59-0.68,14.58,6.272,25.849l-0.05,0.031c0.062,0.1,0.13,0.19,0.193,0.289c-7.366,2.613-11.397,6.215-11.397,10.227   c0,6.879,13.518,14.189,38.57,14.189s38.57-7.311,38.57-14.189c0-5.509-8.379-9.135-12.444-10.571   c0.311-0.504,0.61-1.019,0.904-1.562C85.148,69.148,87.998,63.929,88.885,60.824z M84.66,81.173   c0,5.292-14.608,11.189-35.57,11.189s-35.57-5.897-35.57-11.189c0-2.7,3.823-5.553,10.248-7.685   c5.082,6.042,12.863,8.881,24.164,8.881h0.977c11.435,0,19.512-3.032,24.59-9.234c0.097,0.061,0.2,0.115,0.313,0.154   C80.3,75.505,84.66,78.674,84.66,81.173z M73.893,66.829c-0.413,0.809-0.825,1.546-1.261,2.251   c-0.074,0.12-0.122,0.246-0.159,0.375c-4.378,6.754-11.876,9.914-23.564,9.914h-0.977c-11.614,0-19.072-3.176-23.442-9.97   c-0.036-0.11-0.082-0.218-0.145-0.32c-6.468-10.46-5.853-24.009-5.844-24.223c0-7.314,13.733-13.497,29.988-13.5   c16.256,0.003,29.989,6.186,29.991,13.577c0.001,0.028,0.137,2.854-0.317,6.865c-0.059,0.517,0.154,1.027,0.563,1.348   c0.409,0.321,0.955,0.408,1.442,0.229c1.28-0.468,2.604-0.458,3.729,0.03C84.729,53.767,87.34,55.31,86,60   c-1.145,4.009-4.366,6.042-9.573,6.042c-0.347,0-0.705-0.009-1.123-0.029C74.728,65.985,74.161,66.303,73.893,66.829z" stroke="none" style=""></path>
      </g>
    </svg>
  </g>
  <g class="svg-clip svg-visible" transform="matrix(2.7273,0,0,2.7273,1182.1818,628.1818)" style="cursor: move; opacity: 1;">
    <rect x="0" y="0" width="16" height="16" fill="none" class="svg-hitbox" style=""></rect>
    <svg width="16.14319650515867" height="16.785600875015973" viewBox="71.94285515708981,51.11639912498403,16.14319650515867,16.785600875015973">
      <desc>Created with Snap</desc>
      <defs></defs>
      <g></g>
      <g></g>
      <g>
        <path fill="url('#linearGradientSk5nzdz5w51')" d="M78.443,62.902c-0.496,0-0.96-0.245-1.24-0.655c-0.282-0.414-0.338-0.94-0.152-1.404   c0.37-0.919,0.66-1.939,0.863-3.031c0.057-0.305,0.207-0.584,0.429-0.801c0.872-0.848,2.214-1.131,3.243-0.685   c0.969,0.42,1.896,1.618,1.325,3.615c-0.312,1.095-1.308,2.938-4.457,2.961C78.451,62.902,78.447,62.902,78.443,62.902z" stroke="none" style=""></path>
      </g>
    </svg>
  </g>
  <g class="svg-clip svg-visible" transform="matrix(2.7273,0,0,2.7273,1031.091,569.091)" style="cursor: move; opacity: 1;">
    <rect x="0" y="0" width="63" height="30" fill="none" class="svg-hitbox" style=""></rect>
    <svg width="63.679" height="30.031999999999996" viewBox="16.202,29.856,63.679,30.031999999999996">
      <desc>Created with Snap</desc>
      <defs></defs>
      <g></g>
      <g></g>
      <g>
        <path fill="url('#linearGradientSk5nzdz5w54')" d="M48.042,34.856c-14.823,0-26.84,4.484-26.84,10.016s12.017,10.016,26.84,10.016   c14.823,0,26.839-4.484,26.839-10.016S62.865,34.856,48.042,34.856z M48.465,51.821l-11.613-7.379   c-1.05-0.667-1.629-1.486-1.629-2.305c0-0.819,0.579-1.638,1.628-2.306c0.777-0.494,1.789-0.744,3.006-0.744   c1.999,0,4.382,0.687,6.376,1.838l2.175,1.256l2.173-1.256c1.996-1.151,4.38-1.839,6.377-1.839c1.218,0,2.229,0.25,3.006,0.744   c1.05,0.667,1.628,1.485,1.628,2.305c0,0.819-0.578,1.639-1.628,2.306l-11.531,7.34c-0.003,0-0.013,0.002-0.026,0.002   L48.465,51.821z" stroke="none" style=""></path>
      </g>
    </svg>
  </g>
  <g class="svg-clip svg-visible" transform="matrix(2.3211,0,0,2.3211,845.8703,510.6365)" style="cursor: move; opacity: 1;">
    <rect x="0" y="0" width="88" height="77" fill="none" class="svg-hitbox" style=""></rect>
    <svg width="88.84933394197064" height="77.00600000000003" viewBox="5.520000000000001,23.355999999999995,88.84933394197064,77.00600000000003">
      <desc>Created with Snap</desc>
      <defs></defs>
      <g></g>
      <g></g>
      <g>
        <path fill="url('#linearGradientSk5nzdz5w7e')" d="M88.885,60.824c1.599-5.598-1.045-8.978-3.795-10.171c-1.17-0.507-2.454-0.703-3.75-0.59   c0.241-3.13,0.141-5.168,0.137-5.207c0-9.249-14.49-16.497-32.989-16.5C29.99,28.359,15.5,35.607,15.502,44.777   c-0.031,0.59-0.68,14.58,6.272,25.849l-0.05,0.031c0.062,0.1,0.13,0.19,0.193,0.289c-7.366,2.613-11.397,6.215-11.397,10.227   c0,6.879,13.518,14.189,38.57,14.189s38.57-7.311,38.57-14.189c0-5.509-8.379-9.135-12.444-10.571   c0.311-0.504,0.61-1.019,0.904-1.562C85.148,69.148,87.998,63.929,88.885,60.824z M84.66,81.173   c0,5.292-14.608,11.189-35.57,11.189s-35.57-5.897-35.57-11.189c0-2.7,3.823-5.553,10.248-7.685   c5.082,6.042,12.863,8.881,24.164,8.881h0.977c11.435,0,19.512-3.032,24.59-9.234c0.097,0.061,0.2,0.115,0.313,0.154   C80.3,75.505,84.66,78.674,84.66,81.173z M73.893,66.829c-0.413,0.809-0.825,1.546-1.261,2.251   c-0.074,0.12-0.122,0.246-0.159,0.375c-4.378,6.754-11.876,9.914-23.564,9.914h-0.977c-11.614,0-19.072-3.176-23.442-9.97   c-0.036-0.11-0.082-0.218-0.145-0.32c-6.468-10.46-5.853-24.009-5.844-24.223c0-7.314,13.733-13.497,29.988-13.5   c16.256,0.003,29.989,6.186,29.991,13.577c0.001,0.028,0.137,2.854-0.317,6.865c-0.059,0.517,0.154,1.027,0.563,1.348   c0.409,0.321,0.955,0.408,1.442,0.229c1.28-0.468,2.604-0.458,3.729,0.03C84.729,53.767,87.34,55.31,86,60   c-1.145,4.009-4.366,6.042-9.573,6.042c-0.347,0-0.705-0.009-1.123-0.029C74.728,65.985,74.161,66.303,73.893,66.829z" stroke="none" style=""></path>
      </g>
    </svg>
  </g>
  <g class="svg-clip svg-visible" transform="matrix(2.3211,0,0,2.3211,999.431,575.431)" style="cursor: move; opacity: 1;">
    <rect x="0" y="0" width="16" height="16" fill="none" class="svg-hitbox" style=""></rect>
    <svg width="16.14319650515867" height="16.785600875015973" viewBox="71.94285515708981,51.11639912498403,16.14319650515867,16.785600875015973">
      <desc>Created with Snap</desc>
      <defs></defs>
      <g></g>
      <g></g>
      <g>
        <path fill="url('#linearGradientSk5nzdz5w5a')" d="M78.443,62.902c-0.496,0-0.96-0.245-1.24-0.655c-0.282-0.414-0.338-0.94-0.152-1.404   c0.37-0.919,0.66-1.939,0.863-3.031c0.057-0.305,0.207-0.584,0.429-0.801c0.872-0.848,2.214-1.131,3.243-0.685   c0.969,0.42,1.896,1.618,1.325,3.615c-0.312,1.095-1.308,2.938-4.457,2.961C78.451,62.902,78.447,62.902,78.443,62.902z" stroke="none" style=""></path>
      </g>
    </svg>
  </g>
  <g class="svg-clip svg-visible" transform="matrix(2.3211,0,0,2.3211,870.8844,525.183)" style="cursor: move; opacity: 1;">
    <rect x="0" y="0" width="63" height="30" fill="none" class="svg-hitbox" style=""></rect>
    <svg width="63.679" height="30.031999999999996" viewBox="16.202,29.856,63.679,30.031999999999996">
      <desc>Created with Snap</desc>
      <defs></defs>
      <g></g>
      <g></g>
      <g>
        <path fill="url('#linearGradientSk5nzdz5w5d')" d="M48.042,34.856c-14.823,0-26.84,4.484-26.84,10.016s12.017,10.016,26.84,10.016   c14.823,0,26.839-4.484,26.839-10.016S62.865,34.856,48.042,34.856z M48.465,51.821l-11.613-7.379   c-1.05-0.667-1.629-1.486-1.629-2.305c0-0.819,0.579-1.638,1.628-2.306c0.777-0.494,1.789-0.744,3.006-0.744   c1.999,0,4.382,0.687,6.376,1.838l2.175,1.256l2.173-1.256c1.996-1.151,4.38-1.839,6.377-1.839c1.218,0,2.229,0.25,3.006,0.744   c1.05,0.667,1.628,1.485,1.628,2.305c0,0.819-0.578,1.639-1.628,2.306l-11.531,7.34c-0.003,0-0.013,0.002-0.026,0.002   L48.465,51.821z" stroke="none" style=""></path>
      </g>
    </svg>
  </g>
  <g class="svg-clip svg-visible" transform="matrix(3.8085,0,0,3.8085,1046.915,382.9683)" style="cursor: move; opacity: 1;">
    <rect x="0" y="0" width="20" height="31" fill="none" class="svg-hitbox" style=""></rect>
    <svg width="20.13202961565159" height="31.507832238635515" viewBox="45.003844962904516,-2.316832238635517,20.13202961565159,31.507832238635515">
      <desc>Created with Snap</desc>
      <defs></defs>
      <g></g>
      <g></g>
      <g>
        <path fill="url('#linearGradientSk5nzdz5w6j')" d="M53.498,24.191c-0.34,0-0.682-0.115-0.963-0.351c-1.561-1.31-3.756-4.782-0.89-8.545   c0.619-0.812,1.376-1.65,2.109-2.46c1.568-1.734,3.52-3.893,3.375-5.239c-0.017-0.161-0.069-0.652-0.954-1.287   c-1.097-0.789-2.059-0.828-2.713-0.115C53,6.7,52.922,7.362,53.094,7.562c0.542,0.627,0.472,1.574-0.155,2.116   c-0.627,0.54-1.575,0.471-2.116-0.155c-1.237-1.433-1.055-3.734,0.424-5.352c1.296-1.418,3.823-2.346,6.676-0.298   c1.311,0.94,2.047,2.086,2.188,3.405c0.287,2.681-1.96,5.166-4.134,7.569c-0.723,0.799-1.405,1.555-1.947,2.266   c-1.837,2.411,0.194,4.229,0.432,4.429c0.634,0.532,0.717,1.479,0.185,2.113C54.352,24.009,53.926,24.191,53.498,24.191z" stroke="none" style=""></path>
      </g>
    </svg>
  </g>
  <g class="svg-clip svg-visible" transform="matrix(3.9599,0,0,3.9599,1004.4011,380.6217)" style="cursor: move; opacity: 1;">
    <rect x="0" y="0" width="20" height="31" fill="none" class="svg-hitbox" style=""></rect>
    <svg width="20.2318330794268" height="31.729757018841138" viewBox="33.934265224209874,0.27024298115886225,20.2318330794268,31.729757018841138">
      <desc>Created with Snap</desc>
      <defs></defs>
      <g></g>
      <g></g>
      <g>
        <path fill="url('#linearGradientSk5nzdz5w6p')" d="M45,27c-0.384,0-0.769-0.147-1.062-0.44c-0.585-0.586-0.584-1.536,0.002-2.121   c0.754-0.753,1.455-2.252,1.322-3.904c-0.148-1.835-1.26-3.512-3.305-4.983c-3.669-2.64-3.337-5.764-2.412-7.92   c0.676-1.575,2.702-2.557,4.818-2.329c2.463,0.263,4.248,2.037,4.775,4.745c0.159,0.813-0.373,1.601-1.186,1.759   c-0.814,0.161-1.601-0.373-1.759-1.186c-0.343-1.764-1.346-2.242-2.127-2.333c-0.947-0.109-1.674,0.325-1.765,0.526   c-0.756,1.762-0.335,3.049,1.407,4.302c3.479,2.502,4.391,5.285,4.543,7.178c0.225,2.786-1.041,5.118-2.193,6.268   C45.767,26.854,45.383,27,45,27z" stroke="none" style=""></path>
      </g>
    </svg>
  </g>
  <g class="svg-text svg-visible" transform="matrix(1.4122,0,0,1.4122,733,641)" style="pointer-events: fill; cursor: move; opacity: 1;">
    <path fill="none" style="" d="M-257.8369140625,105 C-20,104 20,104 257.8369140625,105"></path>
    <path d="M-212.0369140625-78.13L-212.0369140625-78.13Q-210.6169140625-76.12 -210.6169140625-72Q-210.6169140625-67.87 -210.8869140625-65.31Q-211.1569140625-62.74 -211.6969140625-60.35L-211.6969140625-60.35Q-212.8669140625-54.98 -214.9669140625-52.25L-214.9669140625-52.25Q-216.7769140625-61.67 -219.6569140625-65.72L-219.6569140625-65.72Q-222.6769140625-69.82 -227.5369140625-69.82Q-232.3969140625-69.82 -235.1269140625-67.97Q-237.8669140625-66.11 -239.3269140625-63.09L-239.3269140625-63.09Q-241.7769140625-58.06 -241.7769140625-48.27Q-241.7769140625-38.48 -239.5469140625-30.35Q-237.3269140625-22.22 -233.2269140625-16.36L-233.2269140625-16.36Q-224.5869140625-3.91 -210.7169140625-3.91L-210.7169140625-3.91Q-210.91691406249998-1.71 -213.0169140625-0.1L-213.0169140625-0.1Q-213.6469140625 0.39 -214.3769140625 0.49L-214.3769140625 0.49Q-232.1069140625 0.49 -243.2869140625-12.55L-243.2869140625-12.55Q-255.1469140625-26.42 -255.1469140625-50.34L-255.1469140625-50.34Q-255.1469140625-62.84 -247.8269140625-69.14L-247.8269140625-69.14Q-241.3369140625-74.71 -230.0569140625-74.71L-230.0569140625-74.71L-221.8969140625-74.61Q-216.1369140625-74.61 -213.7969140625-76.27L-213.7969140625-76.27Q-212.8169140625-77 -212.0369140625-78.13ZM-180.7892578125-45.41Q-185.1792578125-45.41 -187.1092578125-41.02Q-189.0392578125-36.62 -189.0392578125-26.22L-189.0392578125-26.22Q-189.0392578125-3.91 -180.7892578125-3.91L-180.7892578125-3.91Q-176.3892578125-3.91 -174.4592578125-9.86Q-172.5292578125-15.82 -172.5292578125-26.22Q-172.5292578125-36.62 -174.4592578125-41.02Q-176.3892578125-45.41 -180.7892578125-45.41L-180.7892578125-45.41ZM-201.3392578125-28.08Q-201.3392578125-50.29 -180.7892578125-50.29Q-160.2292578125-50.29 -160.2292578125-28.08L-160.2292578125-28.08Q-160.2292578125-14.6 -165.8892578125-6.74L-165.8892578125-6.74Q-171.40925781250002 0.98 -180.7892578125 0.98Q-190.15925781250002 0.98 -195.6792578125-6.74L-195.6792578125-6.74Q-201.3392578125-14.6 -201.3392578125-28.08L-201.3392578125-28.08ZM-129.3730078125 0L-147.1930078125 0Q-144.8930078125-7.86 -144.8930078125-31.74L-144.8930078125-31.74Q-144.8930078125-35.94 -144.9930078125-37.18Q-145.0930078125-38.43 -145.8730078125-38.57L-145.8730078125-38.57Q-149.0930078125-39.31 -149.7330078125-42.29L-149.7330078125-42.29Q-149.8730078125-43.07 -150.1230078125-43.95L-150.1230078125-43.95L-146.9930078125-43.95Q-145.6330078125-43.95 -145.3130078125-44.56Q-144.9930078125-45.17 -144.9930078125-48L-144.9930078125-48Q-144.9930078125-53.52 -145.4130078125-58.84Q-145.8230078125-64.16 -144.9930078125-66.89Q-144.1630078125-69.63 -142.4030078125-71.58L-142.4030078125-71.58Q-138.6930078125-75.68 -131.91300781249998-75.68L-131.91300781249998-75.68Q-129.3730078125-75.68 -127.2730078125-75.2Q-125.1730078125-74.71 -123.2130078125-74.71Q-121.2630078125-74.71 -119.8030078125-75.24Q-118.3330078125-75.78 -117.2130078125-77.64L-117.2130078125-77.64Q-116.57300781250001-76.9 -116.04300781250001-75.02Q-115.5030078125-73.14 -115.5030078125-70.92Q-115.5030078125-68.7 -115.82300781250001-66.24Q-116.1330078125-63.77 -116.7230078125-61.43L-116.7230078125-61.43Q-117.9430078125-56.54 -120.1430078125-53.66L-120.1430078125-53.66Q-121.31300781249999-63.62 -122.3130078125-66.06Q-123.3130078125-68.51 -124.5130078125-69.41Q-125.7030078125-70.31 -128.0530078125-70.31Q-130.3930078125-70.31 -132.2230078125-67.85Q-134.0530078125-65.38 -134.0530078125-61.08L-134.0530078125-61.08L-134.0530078125-59.52Q-134.0530078125-49.76 -133.5230078125-47.73Q-132.9830078125-45.7 -132.0530078125-45.07Q-131.1230078125-44.43 -129.4230078125-44.43L-129.4230078125-44.43L-120.4330078125-44.43Q-121.6530078125-40.04 -123.4630078125-38.77L-123.4630078125-38.77Q-124.3430078125-38.09 -125.4430078125-38.09Q-126.54300781250001-38.09 -127.1730078125-38.23Q-127.8030078125-38.38 -128.3930078125-38.57L-128.3930078125-38.57Q-129.8630078125-39.06 -131.0530078125-39.06Q-132.25300781250002-39.06 -132.8830078125-38.75Q-133.5230078125-38.43 -133.91300781249998-37.84L-133.91300781249998-37.84Q-134.4930078125-36.87 -134.4930078125-34.72L-134.4930078125-34.72L-134.4930078125-26.37Q-134.4930078125-11.18 -133.4230078125-7.37L-133.4230078125-7.37Q-132.6430078125-4.54 -131.4230078125-2.88L-131.4230078125-2.88L-129.3730078125 0ZM-93.33785156249999 0L-111.1578515625 0Q-108.8578515625-7.86 -108.8578515625-31.74L-108.8578515625-31.74Q-108.8578515625-35.94 -108.9578515625-37.18Q-109.0578515625-38.43 -109.8378515625-38.57L-109.8378515625-38.57Q-113.0578515625-39.31 -113.6978515625-42.29L-113.6978515625-42.29Q-113.8378515625-43.07 -114.0878515625-43.95L-114.0878515625-43.95L-110.9578515625-43.95Q-109.5978515625-43.95 -109.2778515625-44.56Q-108.9578515625-45.17 -108.9578515625-48L-108.9578515625-48Q-108.9578515625-53.52 -109.3778515625-58.84Q-109.7878515625-64.16 -108.9578515625-66.89Q-108.1278515625-69.63 -106.3678515625-71.58L-106.3678515625-71.58Q-102.6578515625-75.68 -95.8778515625-75.68L-95.8778515625-75.68Q-93.33785156249999-75.68 -91.2378515625-75.2Q-89.1378515625-74.71 -87.1778515625-74.71Q-85.2278515625-74.71 -83.7678515625-75.24Q-82.2978515625-75.78 -81.1778515625-77.64L-81.1778515625-77.64Q-80.53785156250001-76.9 -80.00785156250001-75.02Q-79.4678515625-73.14 -79.4678515625-70.92Q-79.4678515625-68.7 -79.78785156250001-66.24Q-80.0978515625-63.77 -80.6878515625-61.43L-80.6878515625-61.43Q-81.9078515625-56.54 -84.1078515625-53.66L-84.1078515625-53.66Q-85.27785156249999-63.62 -86.2778515625-66.06Q-87.2778515625-68.51 -88.4778515625-69.41Q-89.6678515625-70.31 -92.0178515625-70.31Q-94.3578515625-70.31 -96.1878515625-67.85Q-98.0178515625-65.38 -98.0178515625-61.08L-98.0178515625-61.08L-98.0178515625-59.52Q-98.0178515625-49.76 -97.4878515625-47.73Q-96.9478515625-45.7 -96.0178515625-45.07Q-95.08785156249999-44.43 -93.3878515625-44.43L-93.3878515625-44.43L-84.3978515625-44.43Q-85.6178515625-40.04 -87.4278515625-38.77L-87.4278515625-38.77Q-88.3078515625-38.09 -89.4078515625-38.09Q-90.50785156250001-38.09 -91.1378515625-38.23Q-91.7678515625-38.38 -92.3578515625-38.57L-92.3578515625-38.57Q-93.8278515625-39.06 -95.0178515625-39.06Q-96.2178515625-39.06 -96.8478515625-38.75Q-97.4878515625-38.43 -97.8778515625-37.84L-97.8778515625-37.84Q-98.4578515625-36.87 -98.4578515625-34.72L-98.4578515625-34.72L-98.4578515625-26.37Q-98.4578515625-11.18 -97.3878515625-7.37L-97.3878515625-7.37Q-96.6078515625-4.54 -95.3878515625-2.88L-95.3878515625-2.88L-93.33785156249999 0ZM-42.21269531249999-16.6L-42.21269531249999-16.6Q-40.45269531249998-15.43 -40.45269531249998-12.52Q-40.45269531249998-9.62 -41.232695312499985-7.42Q-42.012695312499986-5.22 -43.97269531249999-3.32L-43.97269531249999-3.32Q-48.36269531249999 0.98 -57.35269531249999 0.98L-57.35269531249999 0.98Q-67.80269531249999 0.98 -73.26269531249999-6.74L-73.26269531249999-6.74Q-78.10269531249999-13.62 -78.10269531249999-25.34L-78.10269531249999-25.34Q-78.10269531249999-37.16 -71.55269531249999-43.9L-71.55269531249999-43.9Q-65.35269531249999-50.29 -54.762695312499986-50.29L-54.762695312499986-50.29Q-47.38269531249998-50.29 -43.232695312499985-46L-43.232695312499985-46Q-39.96269531249999-42.58 -39.96269531249999-38.11Q-39.96269531249999-33.64 -41.70269531249998-30.05Q-43.43269531249999-26.46 -46.802695312499985-23.88L-46.802695312499985-23.88Q-53.732695312499985-18.51 -66.18269531249999-18.21L-66.18269531249999-18.21Q-65.16269531249998-8.4 -60.03269531249998-5.08L-60.03269531249998-5.08Q-58.18269531249999-3.91 -55.10269531249999-3.91Q-52.02269531249999-3.91 -48.56269531249998-7.13Q-45.092695312499984-10.35 -42.21269531249999-16.6ZM-66.48269531249998-24.37L-66.48269531249998-22.85Q-51.052695312499985-23.88 -51.052695312499985-37.79L-51.052695312499985-37.79Q-51.052695312499985-43.02 -54.17269531249998-44.82L-54.17269531249998-44.82Q-55.25269531249998-45.41 -57.00269531249998-45.41Q-58.762695312499986-45.41 -60.54269531249999-44.34Q-62.332695312499986-43.26 -63.64269531249998-40.82L-63.64269531249998-40.82Q-66.48269531249998-35.5 -66.48269531249998-24.37L-66.48269531249998-24.37ZM 4.4669921875000185-16.6L 4.4669921875000185-16.6Q 6.226992187500024-15.43  6.226992187500024-12.52Q 6.226992187500024-9.62  5.4469921875000225-7.42Q 4.666992187500021-5.22  2.7069921875000205-3.32L 2.7069921875000205-3.32Q-1.68300781249998 0.98 -10.673007812499979 0.98L-10.673007812499979 0.98Q-21.123007812499978 0.98 -26.58300781249998-6.74L-26.58300781249998-6.74Q-31.42300781249998-13.62 -31.42300781249998-25.34L-31.42300781249998-25.34Q-31.42300781249998-37.16 -24.873007812499978-43.9L-24.873007812499978-43.9Q-18.67300781249998-50.29 -8.083007812499979-50.29L-8.083007812499979-50.29Q-0.7030078124999761-50.29  3.4469921875000225-46L 3.4469921875000225-46Q 6.7169921875000185-42.58  6.7169921875000185-38.11Q 6.7169921875000185-33.64  4.976992187500024-30.05Q 3.2469921875000196-26.46 -0.12300781249997783-23.88L-0.12300781249997783-23.88Q-7.0530078124999775-18.51 -19.50300781249998-18.21L-19.50300781249998-18.21Q-18.483007812499977-8.4 -13.353007812499978-5.08L-13.353007812499978-5.08Q-11.50300781249998-3.91 -8.423007812499979-3.91Q-5.34300781249998-3.91 -1.8830078124999758-7.13Q 1.586992187500023-10.35  4.4669921875000185-16.6ZM-19.803007812499978-24.37L-19.803007812499978-22.85Q-4.373007812499978-23.88 -4.373007812499978-37.79L-4.373007812499978-37.79Q-4.373007812499978-43.02 -7.493007812499979-44.82L-7.493007812499979-44.82Q-8.573007812499977-45.41 -10.323007812499977-45.41Q-12.083007812499979-45.41 -13.86300781249998-44.34Q-15.653007812499979-43.26 -16.963007812499978-40.82L-16.963007812499978-40.82Q-19.803007812499978-35.5 -19.803007812499978-24.37L-19.803007812499978-24.37ZM 48.756679687500025-52.25L 48.756679687500025-52.25Q 49.97667968750003-49.32  49.97667968750003-45.83Q 49.97667968750003-42.33  49.72667968750003-40.04Q 49.48667968750003-37.74  48.99667968750003-35.6L 48.99667968750003-35.6Q 47.97667968750003-31.05  45.826679687500025-28.32L 45.826679687500025-28.32Q 43.67667968750003-41.6  38.84667968750003-44.43L 38.84667968750003-44.43Q 37.13667968750003-45.41  35.15667968750003-45.41Q 33.17667968750003-45.41  31.71667968750003-44.48Q 30.246679687500027-43.55  29.226679687500027-41.8L 29.226679687500027-41.8Q 27.12667968750003-38.28  27.12667968750003-32.69Q 27.12667968750003-27.1  28.246679687500027-23.07Q 29.366679687500028-19.04  31.19667968750003-15.84Q 33.036679687500026-12.65  35.34667968750003-10.33Q 37.66667968750003-8.01  40.01667968750003-6.45L 40.01667968750003-6.45Q 44.74667968750003-3.42  48.41667968750003-3.42L 48.41667968750003-3.42Q 48.216679687500026-2.15  47.146679687500026-0.93Q 46.06667968750003 0.29  44.79667968750003 0.98L 44.79667968750003 0.98Q 39.62667968750003 0.98  32.93667968750003-2.54L 32.93667968750003-2.54Q 20.48667968750003-9.13  16.136679687500028-21.78L 16.136679687500028-21.78Q 14.526679687500028-26.42  14.526679687500028-31.27Q 14.526679687500028-36.13  15.64667968750003-39.48Q 16.776679687500028-42.82  18.91667968750003-45.21L 18.91667968750003-45.21Q 23.316679687500027-50.29  31.12667968750003-50.29L 31.12667968750003-50.29Q 33.76667968750003-50.29  36.256679687500025-49.95L 36.256679687500025-49.95Q 40.94667968750003-49.32  42.82667968750003-49.32Q 44.70667968750003-49.32  46.16667968750003-49.83Q 47.63667968750003-50.34  48.756679687500025-52.25ZM 110.91480468750004 0L 93.87480468750003 0Q 94.50480468750003-3.08  94.50480468750003-4.91Q 94.50480468750003-6.74  94.43480468750002-7.67Q 94.36480468750003-8.59  94.23480468750003-9.64Q 94.11480468750003-10.69  93.94480468750004-11.99Q 93.77480468750002-13.28  93.62480468750003-14.99L 93.62480468750003-14.99Q 92.50480468750003-26.66  85.66480468750002-34.18L 85.66480468750002-34.18Q 82.64480468750003-37.5  79.12480468750003-39.23Q 75.61480468750003-40.97  73.34480468750003-40.97Q 71.06480468750003-40.97  69.84480468750003-40.67L 69.84480468750003-40.67Q 67.11480468750003-32.47  67.11480468750003-23.54L 67.11480468750003-23.54Q 67.11480468750003-15.63  67.94480468750002-11.72L 67.94480468750002-11.72Q 69.26480468750003-5.86  71.99480468750002 0.05L 71.99480468750002 0.05L 57.39480468750003 0.05Q 58.56480468750003-2.88  58.56480468750003-12.28Q 58.56480468750003-21.68  59.98480468750003-29.86Q 61.40480468750003-38.04  63.67480468750003-44.43Q 65.94480468750002-50.83  68.75480468750003-55.64Q 71.55480468750002-60.45  74.36480468750003-64.04Q 77.17480468750003-67.63  79.66480468750002-70.19Q 82.15480468750003-72.75  83.81480468750003-74.71L 83.81480468750003-74.71L 99.19480468750004-74.71Q 97.09480468750003-72.31  97.09480468750003-68.02L 97.09480468750003-68.02Q 97.09480468750003-66.06  97.72480468750003-61.62L 97.72480468750003-61.62L 98.95480468750003-52.73Q 105.63480468750004-6.64  110.91480468750004 0L 110.91480468750004 0ZM 71.85480468750004-45.85L 71.85480468750004-45.85Q 73.75480468750003-46.58  75.85480468750004-46.58Q 77.95480468750003-46.58  79.63480468750004-46.29Q 81.32480468750003-46  82.98480468750003-45.31L 82.98480468750003-45.31Q 86.54480468750003-43.95  88.94480468750004-40.97L 88.94480468750004-40.97Q 86.54480468750003-53.52  86.01480468750003-56.3L 86.01480468750003-56.3L 84.30480468750002-64.84L 81.51480468750003-61.52Q 75.65480468750003-54.49  71.85480468750004-45.85ZM 126.9242578125-46.19L 126.9242578125-46.19Q 132.3942578125-50.29  140.6042578125-50.29L 140.6042578125-50.29Q 152.2242578125-50.29  155.78425781250002-40.67L 155.78425781250002-40.67Q 156.9542578125-37.5  156.9542578125-32.69Q 156.9542578125-27.88  155.8642578125-23.32Q 154.7642578125-18.75  152.8042578125-15.09Q 150.8542578125-11.43  148.19425781249998-8.64Q 145.53425781250002-5.86  142.4042578125-4L 142.4042578125-4Q 136.1542578125-0.24  129.1242578125-0.05L 129.1242578125-0.05Q 129.2242578125 2.59  129.4142578125 5.13L 129.4142578125 5.13L 129.9042578125 10.3Q 130.3442578125 15.58  132.9342578125 19.24L 132.9342578125 19.24L 134.5942578125 21.48L 116.7742578125 21.48Q 118.1442578125 16.8  118.3642578125 12.11Q 118.5742578125 7.42  118.7042578125 4.08Q 118.8242578125 0.73  118.8742578125-2.83L 118.8742578125-2.83Q 119.0642578125-11.13  119.0642578125-17.38L 119.0642578125-17.38Q 119.0642578125-37.5  117.7942578125-41.99L 117.7942578125-41.99Q 117.0142578125-44.78  115.7942578125-46.44L 115.7942578125-46.44L 113.7442578125-49.32L 126.8842578125-49.32Q 126.5842578125-48.34  126.9242578125-46.19ZM 144.7542578125-31.4L 144.7542578125-31.4Q 144.7542578125-45.41  137.6742578125-45.41L 137.6742578125-45.41Q 134.1542578125-45.41  131.8142578125-42.29L 131.8142578125-42.29Q 129.2742578125-38.92  129.2742578125-33.06L 129.2742578125-33.06L 128.9342578125-9.91L 128.9342578125-7.23Q 128.9342578125-5.91  128.9842578125-4.54L 128.9842578125-4.54Q 136.0642578125-5.62  140.4542578125-13.04L 140.4542578125-13.04Q 144.7542578125-20.36  144.7542578125-31.4ZM 178.3891015625-46.19L 178.3891015625-46.19Q 183.8591015625-50.29  192.0691015625-50.29L 192.0691015625-50.29Q 203.6891015625-50.29  207.24910156250002-40.67L 207.24910156250002-40.67Q 208.4191015625-37.5  208.4191015625-32.69Q 208.4191015625-27.88  207.3291015625-23.32Q 206.2291015625-18.75  204.2691015625-15.09Q 202.3191015625-11.43  199.65910156249998-8.64Q 196.99910156250002-5.86  193.8691015625-4L 193.8691015625-4Q 187.6191015625-0.24  180.5891015625-0.05L 180.5891015625-0.05Q 180.6891015625 2.59  180.8791015625 5.13L 180.8791015625 5.13L 181.3691015625 10.3Q 181.8091015625 15.58  184.3991015625 19.24L 184.3991015625 19.24L 186.0591015625 21.48L 168.2391015625 21.48Q 169.6091015625 16.8  169.8291015625 12.11Q 170.0391015625 7.42  170.1691015625 4.08Q 170.2891015625 0.73  170.3391015625-2.83L 170.3391015625-2.83Q 170.5291015625-11.13  170.5291015625-17.38L 170.5291015625-17.38Q 170.5291015625-37.5  169.2591015625-41.99L 169.2591015625-41.99Q 168.4791015625-44.78  167.2591015625-46.44L 167.2591015625-46.44L 165.2091015625-49.32L 178.3491015625-49.32Q 178.0491015625-48.34  178.3891015625-46.19ZM 196.2191015625-31.4L 196.2191015625-31.4Q 196.2191015625-45.41  189.1391015625-45.41L 189.1391015625-45.41Q 185.6191015625-45.41  183.2791015625-42.29L 183.2791015625-42.29Q 180.7391015625-38.92  180.7391015625-33.06L 180.7391015625-33.06L 180.3991015625-9.91L 180.3991015625-7.23Q 180.3991015625-5.91  180.4491015625-4.54L 180.4491015625-4.54Q 187.5291015625-5.62  191.9191015625-13.04L 191.9191015625-13.04Q 196.2191015625-20.36  196.2191015625-31.4ZM 249.8339453125-52.2L 249.8339453125-52.2Q 251.1439453125-49.27  251.1439453125-46.29Q 251.1439453125-43.31  250.87394531249998-41.36Q 250.6139453125-39.4  250.0739453125-37.6L 250.0739453125-37.6Q 248.8539453125-33.5  246.6039453125-31.3L 246.6039453125-31.3Q 245.0939453125-38.87  243.3139453125-41.11Q 241.5239453125-43.36  239.7439453125-44.14Q 237.96394531250002-44.92  235.96394531250002-44.92Q 233.96394531250002-44.92  232.6939453125-44.53Q 231.4239453125-44.14  230.4939453125-43.41L 230.4939453125-43.41Q 228.3939453125-41.8  228.3939453125-39.75Q 228.3939453125-37.7  229.4239453125-36.21Q 230.4439453125-34.72  232.12394531249998-33.42Q 233.8139453125-32.13  235.96394531250002-30.91L 235.96394531250002-30.91L 240.3539453125-28.42Q 246.0239453125-25.24  248.12394531249998-23.14L 248.12394531249998-23.14Q 252.2739453125-18.99  252.2739453125-14.4L 252.2739453125-14.4Q 252.2739453125-8.4  248.1739453125-4.3L 248.1739453125-4.3Q 242.9939453125 0.98  232.6439453125 0.98L 232.6439453125 0.98Q 223.2139453125 0.98  218.4839453125-3.42L 218.4839453125-3.42Q 217.1139453125-4.69  216.5239453125-5.96L 216.5239453125-5.96Q 216.9239453125-9.62  219.8039453125-12.84L 219.8039453125-12.84Q 222.5839453125-15.97  225.2239453125-16.46L 225.2239453125-16.46Q 225.0239453125-15.82  225.0239453125-14.55Q 225.0239453125-13.28  225.7539453125-11.4Q 226.4939453125-9.52  227.8539453125-7.91L 227.8539453125-7.91Q 230.9339453125-4.2  234.7939453125-4.2Q 238.6439453125-4.2  240.4539453125-5.96Q 242.2639453125-7.71  242.2639453125-9.96Q 242.2639453125-12.21  241.2339453125-13.72Q 240.21394531250002-15.23  238.5239453125-16.55Q 236.8439453125-17.87  234.6939453125-19.09L 234.6939453125-19.09L 230.2939453125-21.58Q 224.6839453125-24.9  222.5839453125-27.25L 222.5839453125-27.25Q 218.3839453125-31.93  218.3839453125-37.45L 218.3839453125-37.45Q 218.3839453125-43.26  223.2639453125-46.88L 223.2639453125-46.88Q 227.9039453125-50.29  234.8339453125-50.29L 234.8339453125-50.29L 243.4339453125-49.71Q 246.5539453125-49.71  247.7739453125-50.46Q 249.0039453125-51.22  249.8339453125-52.2Z" data-textpath="CoffeecApps" data-text-anchor="middle" data-font-size="100" data-letterspacing="0" data-side="left" data-offset="0" data-dx="0" data-dy="93.75" data-href="" data-font="Amarante" data-font-src="/Content/clientfonts/amarante.woff" data-font-scale="contain" transform="translate(0,93.75)" data-xmlspace="preserve" fill="url('#linearGradientSk5nzdz5w6a')" id="title"></path>
    <rect x="0" y="0" width="0" height="0"></rect>
  </g>
</svg>